<?xml version="1.0" encoding="utf-8"?>
<!-- Generated by IcoMoon.io -->
<svg version="1.1" xmlns="http://www.w3.org/2000/svg" xmlns:xlink="http://www.w3.org/1999/xlink" width="752" height="32" viewBox="0 0 752 32">
<svg id="icon-arrow-top-right" width="32" height="32" viewBox="0 0 32 32" x="0" y="0">
<path fill="none" stroke-linejoin="miter" stroke-linecap="butt" stroke-miterlimit="4" stroke-width="0.9695" stroke="#000" d="M7.206 24.695l17.998-17.998"></path>
<path fill="none" stroke-linejoin="miter" stroke-linecap="butt" stroke-miterlimit="4" stroke-width="0.9695" stroke="#000" d="M12.413 6.892l12.725-0.001-0.001 12.725"></path>
</svg>
<svg id="icon-bold-arrow-down-right" width="32" height="32" viewBox="0 0 32 32" x="48" y="0">
<path d="M31.997 6.642l-6.581-6.581v20.7l-20.762-20.762-4.655 4.655 20.762 20.758h-20.7l6.584 6.584h25.352v-25.355z"></path>
</svg>
<svg id="icon-burger-icon" width="32" height="32" viewBox="0 0 32 32" x="96" y="0">
<path fill="none" stroke-linejoin="miter" stroke-linecap="butt" stroke-miterlimit="4" stroke-width="1.3913" stroke="#000" d="M0.696 9.043h30.609"></path>
<path fill="none" stroke-linejoin="miter" stroke-linecap="butt" stroke-miterlimit="4" stroke-width="1.3913" stroke="#000" d="M0.696 16h30.609"></path>
<path fill="none" stroke-linejoin="miter" stroke-linecap="butt" stroke-miterlimit="4" stroke-width="1.3913" stroke="#000" d="M0.696 22.957h30.609"></path>
</svg>
<svg id="icon-facebook" width="32" height="32" viewBox="0 0 32 32" x="144" y="0">
<path d="M17.695 7.636c0 0.327 0 1.395 0 2.911h5.214l-0.565 4.648h-4.649c0 7.168 0 16.773 0 16.773h-6.17c0 0 0-9.478 0-16.773h-3.215v-4.648h3.215c0-1.843 0-3.154 0-3.519 0-1.739-0.131-2.564 0.608-3.911s2.824-3.128 6.43-3.085c3.607 0.044 5.128 0.391 5.128 0.391l-0.781 4.954c0 0-2.303-0.608-3.434-0.391-1.129 0.217-1.78 0.912-1.78 2.65z"></path>
</svg>
<svg id="icon-instagram" width="32" height="32" viewBox="0 0 32 32" x="192" y="0">
<path d="M16 24c-4.418 0-8-3.582-8-8s3.582-8 8-8c4.418 0 8 3.582 8 8s-3.582 8-8 8zM16 21.333c2.945 0 5.333-2.388 5.333-5.333s-2.388-5.333-5.333-5.333c-2.946 0-5.333 2.388-5.333 5.333s2.388 5.333 5.333 5.333z"></path>
<path d="M24 6.667c-0.736 0-1.333 0.597-1.333 1.333s0.597 1.333 1.333 1.333c0.736 0 1.333-0.597 1.333-1.333s-0.597-1.333-1.333-1.333z"></path>
<path d="M2.205 5.701c0.767-1.505 1.991-2.729 3.496-3.496 1.711-0.872 3.951-0.872 8.432-0.872h3.733c4.48 0 6.721 0 8.432 0.872 1.505 0.767 2.729 1.991 3.496 3.496 0.872 1.711 0.872 3.951 0.872 8.432v3.733c0 4.48 0 6.721-0.872 8.432-0.767 1.505-1.991 2.729-3.496 3.496-1.711 0.872-3.951 0.872-8.432 0.872h-3.733c-4.48 0-6.721 0-8.432-0.872-1.505-0.767-2.729-1.991-3.496-3.496-0.872-1.711-0.872-3.951-0.872-8.432v-3.733c0-4.48 0-6.721 0.872-8.432zM17.867 4h-3.733c-2.284 0-3.837 0.002-5.037 0.1-1.169 0.096-1.767 0.269-2.184 0.481-1.004 0.511-1.819 1.327-2.331 2.331-0.213 0.417-0.386 1.015-0.481 2.184-0.098 1.2-0.1 2.753-0.1 5.037v3.733c0 2.284 0.002 3.837 0.1 5.037 0.096 1.169 0.269 1.767 0.481 2.184 0.511 1.003 1.327 1.819 2.331 2.331 0.417 0.213 1.015 0.386 2.184 0.481 1.2 0.098 2.753 0.1 5.037 0.1h3.733c2.284 0 3.837-0.002 5.037-0.1 1.169-0.095 1.767-0.269 2.184-0.481 1.003-0.511 1.819-1.327 2.331-2.331 0.213-0.417 0.386-1.015 0.481-2.184 0.098-1.2 0.1-2.753 0.1-5.037v-3.733c0-2.284-0.002-3.837-0.1-5.037-0.095-1.169-0.269-1.767-0.481-2.184-0.511-1.004-1.327-1.819-2.331-2.331-0.417-0.213-1.015-0.386-2.184-0.481-1.2-0.098-2.753-0.1-5.037-0.1z"></path>
</svg>
<svg id="icon-plus" width="32" height="32" viewBox="0 0 32 32" x="240" y="0">
<path d="M31.407 14.73h-30.815v1.541h30.815v-1.541z"></path>
<path d="M16.77 30.907v-30.815h-1.541v30.815h1.541z"></path>
</svg>
<svg id="icon-tiktok" width="32" height="32" viewBox="0 0 32 32" x="288" y="0">
<path d="M16.656 1.029c1.637-0.025 3.262-0.012 4.886-0.025 0.054 2.031 0.878 3.859 2.189 5.213l-0.002-0.002c1.411 1.271 3.247 2.095 5.271 2.235l0.028 0.002v5.036c-1.912-0.048-3.71-0.489-5.331-1.247l0.082 0.034c-0.784-0.377-1.447-0.764-2.077-1.196l0.052 0.034c-0.012 3.649 0.012 7.298-0.025 10.934-0.103 1.853-0.719 3.543-1.707 4.954l0.020-0.031c-1.652 2.366-4.328 3.919-7.371 4.011h-0.014c-0.123 0.006-0.268 0.009-0.414 0.009-1.73 0-3.347-0.482-4.725-1.319l0.040 0.023c-2.508-1.509-4.238-4.091-4.558-7.094l-0.004-0.041c-0.025-0.625-0.037-1.25-0.012-1.862 0.49-4.779 4.494-8.476 9.361-8.476 0.547 0 1.083 0.047 1.604 0.136l-0.056-0.008c0.025 1.849-0.050 3.699-0.050 5.548-0.423-0.153-0.911-0.242-1.42-0.242-1.868 0-3.457 1.194-4.045 2.861l-0.009 0.030c-0.133 0.427-0.21 0.918-0.21 1.426 0 0.206 0.013 0.41 0.037 0.61l-0.002-0.024c0.332 2.046 2.086 3.59 4.201 3.59 0.061 0 0.121-0.001 0.181-0.004h-0.009c1.463-0.044 2.733-0.831 3.451-1.994l0.010-0.018c0.267-0.372 0.45-0.822 0.511-1.311l0.001-0.014c0.125-2.237 0.075-4.461 0.087-6.698 0.012-5.036-0.012-10.060 0.025-15.083z"></path>
</svg>
<svg id="icon-transparent-wrrow-bottom-left" width="32" height="32" viewBox="0 0 32 32" x="336" y="0">
<path fill="none" stroke-linejoin="miter" stroke-linecap="butt" stroke-miterlimit="4" stroke-width="0.3855" stroke="#000" d="M24.872 31.542l6.343-6.343h-19.952l20.011-20.011-4.487-4.487-20.008 20.011v-19.952l-6.346 6.346v24.436h24.439z"></path>
</svg>
<svg id="icon-twitter" width="32" height="32" viewBox="0 0 32 32" x="384" y="0">
<path d="M10.064 28.8c12.075 0 18.68-9.85 18.68-18.391 0-0.28 0-0.559-0.019-0.836 1.285-0.914 2.394-2.048 3.275-3.346-1.197 0.523-2.469 0.866-3.77 1.018 1.37-0.808 2.395-2.078 2.886-3.576-1.29 0.753-2.699 1.284-4.17 1.569-2.486-2.602-6.645-2.728-9.29-0.28-1.704 1.578-2.429 3.932-1.899 6.177-5.278-0.261-10.197-2.716-13.531-6.753-1.742 2.954-0.851 6.731 2.034 8.628-1.045-0.030-2.067-0.307-2.981-0.808v0.082c0.002 3.076 2.205 5.726 5.267 6.336-0.966 0.26-1.981 0.298-2.963 0.11 0.859 2.634 3.325 4.438 6.133 4.49-2.325 1.799-5.197 2.776-8.154 2.772-0.522-0.002-1.043-0.032-1.563-0.093 3.003 1.897 6.496 2.903 10.064 2.898z"></path>
</svg>
<svg id="icon-youtube" width="32" height="32" viewBox="0 0 32 32" x="432" y="0">
<path d="M12.781 20.137v-8.979c3.188 1.5 5.656 2.949 8.576 4.511-2.408 1.336-5.389 2.834-8.576 4.468zM30.546 6.693c-0.55-0.724-1.487-1.288-2.485-1.474-2.933-0.557-21.227-0.558-24.158 0-0.8 0.15-1.512 0.512-2.124 1.075-2.579 2.393-1.771 15.229-1.149 17.308 0.261 0.9 0.599 1.549 1.025 1.975 0.548 0.563 1.299 0.951 2.161 1.125 2.415 0.499 14.854 0.779 24.195 0.075 0.861-0.15 1.622-0.55 2.223-1.138 2.384-2.384 2.222-15.94 0.312-18.947z"></path>
</svg>
</svg>
