<!-- Generated by IcoMoon.io -->
<svg version="1.1" xmlns="http://www.w3.org/2000/svg" width="32" height="32" viewBox="0 0 32 32">
<path d="M16 24c-4.418 0-8-3.582-8-8s3.582-8 8-8c4.418 0 8 3.582 8 8s-3.582 8-8 8zM16 21.333c2.945 0 5.333-2.388 5.333-5.333s-2.388-5.333-5.333-5.333c-2.946 0-5.333 2.388-5.333 5.333s2.388 5.333 5.333 5.333z"></path>
<path d="M24 6.667c-0.736 0-1.333 0.597-1.333 1.333s0.597 1.333 1.333 1.333c0.736 0 1.333-0.597 1.333-1.333s-0.597-1.333-1.333-1.333z"></path>
<path d="M2.205 5.701c0.767-1.505 1.991-2.729 3.496-3.496 1.711-0.872 3.951-0.872 8.432-0.872h3.733c4.48 0 6.721 0 8.432 0.872 1.505 0.767 2.729 1.991 3.496 3.496 0.872 1.711 0.872 3.951 0.872 8.432v3.733c0 4.48 0 6.721-0.872 8.432-0.767 1.505-1.991 2.729-3.496 3.496-1.711 0.872-3.951 0.872-8.432 0.872h-3.733c-4.48 0-6.721 0-8.432-0.872-1.505-0.767-2.729-1.991-3.496-3.496-0.872-1.711-0.872-3.951-0.872-8.432v-3.733c0-4.48 0-6.721 0.872-8.432zM17.867 4h-3.733c-2.284 0-3.837 0.002-5.037 0.1-1.169 0.096-1.767 0.269-2.184 0.481-1.004 0.511-1.819 1.327-2.331 2.331-0.213 0.417-0.386 1.015-0.481 2.184-0.098 1.2-0.1 2.753-0.1 5.037v3.733c0 2.284 0.002 3.837 0.1 5.037 0.096 1.169 0.269 1.767 0.481 2.184 0.511 1.003 1.327 1.819 2.331 2.331 0.417 0.213 1.015 0.386 2.184 0.481 1.2 0.098 2.753 0.1 5.037 0.1h3.733c2.284 0 3.837-0.002 5.037-0.1 1.169-0.095 1.767-0.269 2.184-0.481 1.003-0.511 1.819-1.327 2.331-2.331 0.213-0.417 0.386-1.015 0.481-2.184 0.098-1.2 0.1-2.753 0.1-5.037v-3.733c0-2.284-0.002-3.837-0.1-5.037-0.095-1.169-0.269-1.767-0.481-2.184-0.511-1.004-1.327-1.819-2.331-2.331-0.417-0.213-1.015-0.386-2.184-0.481-1.2-0.098-2.753-0.1-5.037-0.1z"></path>
</svg>
